<?xml version='1.0' encoding='iso-8859-1'?>
<!DOCTYPE svg PUBLIC '-//W3C//DTD SVG 1.1//EN' 'http://www.w3.org/Graphics/SVG/1.1/DTD/svg11.dtd'>
<?xml-stylesheet type="text/css" href="../css/styles.css"?>
<svg version="1.1" xmlns="http://www.w3.org/2000/svg" viewBox="0 0 436.804 436.804" xmlns:xlink="http://www.w3.org/1999/xlink" enable-background="new 0 0 436.804 436.804">
<g class="icon">
  <path d="m429.304,15.902h-421.804c-4.143,0-7.5,3.358-7.5,7.5s3.357,7.5 7.5,7.5h20.113v382.5c0,4.142 3.357,7.5 7.5,7.5h92.034c4.143,0 7.5-3.358 7.5-7.5v-16.5h167.51v16.5c0,4.142 3.357,7.5 7.5,7.5h92.034c4.143,0 7.5-3.358 7.5-7.5v-382.5h20.112c4.143,0 7.5-3.358 7.5-7.5s-3.357-7.5-7.499-7.5zm-177.165,40h-67.473v-25h67.473v25zm-166.852,244.794c56.217-8.74 99.379-57.474 99.379-116.102v-113.692h26.236v311h-76.37c-1.626-34.618-21.019-64.663-49.245-81.206zm84.379-269.794v153.692c0,56.519-45.981,102.5-102.5,102.5h-24.553v-256.192h127.053zm-50.019,375h-77.034v-103.479c43.113,3.807 77.034,40.119 77.034,84.205v19.274zm182.625-24h-76.37v-311h26.236v113.692c0,58.628 43.162,107.362 99.379,116.102-28.225,16.544-47.618,46.588-49.245,81.206zm91.919,24h-77.034v-19.273c0-44.086 33.921-80.398 77.034-84.205v103.478zm0-118.808h-24.554c-56.519,0-102.499-45.981-102.499-102.5v-153.692h127.053v256.192z"/>
 </g> 
</svg>
