<?xml version="1.0" encoding="iso-8859-1"?>
<!-- Generator: Adobe Illustrator 19.0.0, SVG Export Plug-In . SVG Version: 6.00 Build 0)  -->
<?xml-stylesheet type="text/css" href="../css/styles.css"?>
<svg version="1.1" id="Layer_1" xmlns="http://www.w3.org/2000/svg" xmlns:xlink="http://www.w3.org/1999/xlink" x="0px" y="0px"
	 viewBox="0 0 512 512" style="enable-background:new 0 0 512 512;" xml:space="preserve">
<g class="icon">
	<g>
		<g>
			<g>
				<path d="M406.468,125.589c-11.434-14.069-31.02-17.959-46.915-9.645c-2.325-2.043-5.168-3.566-8.393-4.322
					c-10.469-2.459-20.952,4.04-23.409,14.511l-4.253,18.127l-8.206,6.668l-0.027-5.337c-0.134-26.399-21.719-47.876-48.118-47.876
					c-11.32,0-97.816,0-109.158,0c-26.401,0-47.986,21.478-48.118,47.876l-0.523,104.116h-2.151c-8.605,0-15.58,6.976-15.58,15.58
					v49.697c0,20.864,16.974,37.838,37.838,37.838c11.603,0,21.997-5.254,28.944-13.503V487.6c0,13.476,10.924,24.4,24.4,24.4
					s24.4-10.924,24.4-24.4V292.571h10.535V487.6c0,13.476,10.924,24.4,24.4,24.4s24.4-10.924,24.4-24.4
					c0-31.74-0.442-342.949-0.442-341.611c0-2.313,1.846-4.203,4.159-4.257c2.313-0.053,4.247,1.748,4.351,4.06c0,0,0,0.001,0,0.002
					l0.346,68.804c0.039,7.689,4.41,14.698,11.298,18.113c6.895,3.42,15.122,2.649,21.258-1.968l31.991-24.066
					c3.382,4.16,7.026,6.97,13.08,6.97c3.562,0,7.036-1.222,9.826-3.489l38.568-31.342c7.844-6.375,12.736-15.421,13.774-25.475
					S412.842,133.432,406.468,125.589z M150.537,145.793c0.011-2.166,1.772-3.913,3.936-3.906c2.165,0.007,3.915,1.763,3.915,3.926
					v105.411c-3.524-1.677-6.254-1.519-8.373-1.519L150.537,145.793z M167.291,309.94c-3.537,2.146-7.849,1.152-10.19-1.879
					l-5.391-6.977v13.898c0,12.293-9.965,22.258-22.258,22.258c-12.293,0-22.258-9.965-22.258-22.258v-49.697h44.515v10.318
					c7.058,9.133,10.915,14.126,17.719,22.931C172.165,302.074,171.446,307.416,167.291,309.94z M391.14,166.724l-38.568,31.342
					l-28.075-34.546l8.008-6.508c6.034-25.706,5.425-23.112,6.622-28.21c0.983-4.188,5.172-6.784,9.364-5.805
					c4.156,0.975,6.793,5.152,5.804,9.364l-2.014,8.583l10.786-8.765c9.541-7.753,23.559-6.302,31.31,3.236
					C402.129,144.954,400.681,158.972,391.14,166.724z"/>
			</g>
		</g>
		<g>
			<g>
				<circle cx="212.738" cy="42.14" r="42.14"/>
			</g>
		</g>
		<g>
			<g>
				<path d="M418.111,394.876c-1.853-2.215-4.592-3.493-7.479-3.493h-97.404c-2.887,0-5.626,1.28-7.479,3.493
					c-1.853,2.214-2.63,5.136-2.12,7.977l18.11,101.114c0.832,4.648,4.877,8.033,9.599,8.033h61.184c4.722,0,8.766-3.384,9.599-8.033
					l18.11-101.114C420.74,400.012,419.964,397.091,418.111,394.876z"/>
			</g>
	</g>
	</g>
	<g>
	</g>
	<g>
	</g>
	<g>
	</g>
	<g>
	</g>
	<g>
	</g>
	<g>
	</g>
	<g>
	</g>
	<g>
	</g>
	<g>
	</g>
	<g>
	</g>
	<g>
	</g>
	<g>
	</g>
	<g>
	</g>
	<g>
	</g>
</g>
</svg>
