<?xml version="1.0" encoding="iso-8859-1"?>
<!-- Generator: Adobe Illustrator 19.0.0, SVG Export Plug-In . SVG Version: 6.00 Build 0)  -->
<?xml-stylesheet type="text/css" href="../css/styles.css"?>
<svg version="1.1" id="Layer_1" xmlns="http://www.w3.org/2000/svg" xmlns:xlink="http://www.w3.org/1999/xlink" x="0px" y="0px"
	 viewBox="0 0 512.006 512.006" style="enable-background:new 0 0 512.006 512.006;" xml:space="preserve">
<g class="icon">	 
<g>
	<g>
		<path d="M511.278,276.764c-1.948-9.738-7.589-18.111-15.889-23.576c-15.692-10.331-36.587-7.241-48.603,7.189
			c-3.269,3.927-2.738,9.761,1.191,13.032c3.926,3.267,9.76,2.738,13.032-1.19c5.982-7.183,16.385-8.722,24.203-3.575
			c4.138,2.727,6.951,6.899,7.92,11.751c0.969,4.84-0.018,9.757-2.778,13.848c-23.253,34.469-82.54,116.468-130.747,133.393
			c-21.984,7.713-49.292,1.195-78.204-5.703c-43.847-10.467-93.275-22.26-139.043,11.488l-53.032-53.028L71.65,362.716
			c3.827-3.521,8.17-7.337,12.955-11.275l27.628,27.63c1.807,1.807,4.175,2.711,6.544,2.711c2.367,0,4.736-0.903,6.542-2.709
			c3.615-3.614,3.615-9.472,0.001-13.085l-25.939-25.939c3.393-2.443,6.929-4.871,10.594-7.248l27.755,27.756
			c1.807,1.806,4.176,2.709,6.544,2.709s4.736-0.903,6.544-2.709c3.614-3.615,3.614-9.472,0-13.086l-24.41-24.41
			c32.986-17.695,73.362-28.113,113.182-9.83c31.55,14.489,58.239,23.565,81.516,27.602c0.263,0.057,0.53,0.104,0.802,0.138
			c1.732,0.292,3.447,0.56,5.141,0.797c4.318,0.988,9.998,3.077,13.151,7.012c2.347,2.929,3.115,6.774,2.353,11.756
			c-0.695,4.536-2.682,7.537-6.44,9.733c-14.043,8.197-45.861,2.202-71.164-7.375c-4.781-1.807-10.12,0.598-11.93,5.378
			c-1.809,4.779,0.6,10.12,5.378,11.93c9.609,3.636,35.26,12.414,58.732,12.414c10.39,0,20.355-1.721,28.313-6.366
			c8.543-4.987,13.868-12.908,15.4-22.908c1.16-7.564,0.245-14.526-2.639-20.485c29.29-2.446,54.116-15.614,78.076-41.408
			c3.478-3.744,3.262-9.6-0.482-13.077c-3.747-3.48-9.599-3.262-13.077,0.482c-23.876,25.706-49.487,40.467-92.252,34.708
			c-2.706-0.576-4.86-0.827-6.053-0.931c-21.108-3.653-46.258-12.047-77.107-26.214c-77.328-35.511-153.681,20.803-188.756,53.21
			l-9.395-9.395c-3.615-3.612-9.472-3.612-13.086,0l-33.36,33.36c-3.614,3.615-3.614,9.472,0,13.086l62.706,62.706
			c3.615,3.612,9.472,3.612,13.086,0c3.614-3.615,3.614-9.472,0-13.086l-56.164-56.162l20.275-20.275l9.206,9.206
			c0.007,0.007,0.015,0.017,0.023,0.026l18.5,18.497l70.921,70.921l-20.275,20.275l-19.63-19.631c-3.615-3.612-9.472-3.612-13.086,0
			c-3.614,3.615-3.614,9.472,0,13.086l26.173,26.173c1.807,1.806,4.176,2.709,6.544,2.709s4.736-0.903,6.544-2.709l33.36-33.36
			c3.614-3.615,3.614-9.472,0-13.086l-5.262-5.262c38.376-26.591,80.574-16.532,121.473-6.769
			c31.635,7.55,61.515,14.681,88.629,5.166c51.504-18.083,109.796-95.793,139.959-140.505
			C511.241,296.371,513.222,286.489,511.278,276.764z"/>
	</g>
</g>
<g>
	<g>
		<path d="M440.114,12.229c-56.687,15.708-97.574,32.782-127.535,53.338c-23.326-22.236-58.864-39.186-113.6-54.355
			c-4.013-1.131-8.432,0.734-10.493,4.333c-1.253,2.191-1.563,4.89-0.819,7.306c0.081,0.27,8.267,27.154,6.837,44.093
			c-0.889,10.519-1.684,26.656,1.668,45.263c0.904,5.029,5.718,8.37,10.746,7.466c5.029-0.904,8.372-5.717,7.466-10.746
			c-2.962-16.453-2.239-30.95-1.439-40.426c0.58-6.871-0.036-14.728-1.126-22.186c15.648,15.699,36.705,40.478,50.922,71.456
			c-8.566,14.93-14.563,31.581-17.679,48.505c-7.904-7.179-14.459-15.518-19.521-24.845c-2.44-4.492-8.054-6.159-12.547-3.718
			c-4.492,2.439-6.155,8.055-3.718,12.547c7.019,12.931,16.422,24.261,27.95,33.683c1.934,1.578,3.883,3.066,5.826,4.472
			c0.167,29.269,12.158,53.945,34.042,67.765c11.214,7.083,24.225,10.709,38.158,10.709c4.089,0,8.257-0.312,12.483-0.941
			c19.354-2.881,39.538-12.535,58.367-27.918c16.939-13.842,30.341-30.792,39.833-50.38c2.229-4.599,0.307-10.133-4.292-12.362
			c-4.602-2.233-10.134-0.307-12.362,4.292c-8.31,17.149-20.049,31.993-34.889,44.12c-31.14,25.442-63.819,31.736-87.415,16.834
			c-19.965-12.609-28.853-38.142-24.203-68.008c4.245-26.827,16.893-52.117,35.904-71.5c5.49-5.586,11.597-10.88,18.377-15.925
			c0.18-0.133,0.347-0.282,0.514-0.427c18.704-13.867,42.608-26.013,72.695-37.164c-2.461,2.237-4.969,4.586-7.521,7.069
			c-27.577,26.844-65.244,74.11-88.082,146.837c-1.531,4.876,1.179,10.068,6.055,11.599c0.923,0.29,1.857,0.428,2.775,0.428
			c3.934,0,7.584-2.53,8.825-6.483c21.557-68.641,56.879-113.212,82.716-138.514c12.488-12.23,24.02-21.259,33.003-27.535
			c-2.871,13.51-5.511,30.718-4.328,44.733c1.193,14.105,2.185,35.659-2.936,59.901c-1.056,5,2.14,9.909,7.141,10.966
			c4.984,1.054,9.908-2.141,10.965-7.14c6.277-29.712,4.015-56.487,3.271-65.286c-1.969-23.295,9.171-59.85,9.282-60.214
			C453.532,17.01,447.039,10.341,440.114,12.229z M297.164,77.249c-1.223,1.027-0.196,0.165-0.017,0.014
			c-8.19,6.874-15.768,14.481-22.423,22.857c-12.52-24.114-28.246-44.044-41.872-58.757c28.618,10.496,49.758,22.122,64.721,35.532
			C297.433,77.014,297.304,77.133,297.164,77.249z"/>
	</g>
</g>
</g>
</svg>
