<?xml version='1.0' encoding='iso-8859-1'?>
<!DOCTYPE svg PUBLIC '-//W3C//DTD SVG 1.1//EN' 'http://www.w3.org/Graphics/SVG/1.1/DTD/svg11.dtd'>
<?xml-stylesheet type="text/css" href="../css/styles.css"?>
<svg version="1.1" xmlns="http://www.w3.org/2000/svg" viewBox="0 0 435 435" xmlns:xlink="http://www.w3.org/1999/xlink" enable-background="new 0 0 435 435">
  <g class="icon">
    <path d="M391.865,22.566H362.5V7.5c0-4.142-3.357-7.5-7.5-7.5h-98c-4.143,0-7.5,3.358-7.5,7.5v15.066h-64V7.5   c0-4.142-3.358-7.5-7.5-7.5H80c-4.142,0-7.5,3.358-7.5,7.5v15.066H43.135c-4.142,0-7.5,3.358-7.5,7.5V427.5   c0,4.142,3.358,7.5,7.5,7.5h348.731c4.143,0,7.5-3.358,7.5-7.5V30.066C399.365,25.924,396.008,22.566,391.865,22.566z    M384.365,374.667H50.635V113h333.731V374.667z M264.5,15h83v7.566h-83V15z M87.5,15h83v7.566h-83V15z M384.365,37.566V98H50.635   V37.566H384.365z M50.635,420v-30.333h333.731V420H50.635z"/>
    <path d="m97.865,346.696h239.27c4.143,0 7.5-3.358 7.5-7.5v-181.761c0-4.142-3.357-7.5-7.5-7.5h-239.27c-4.142,0-7.5,3.358-7.5,7.5v181.761c0,4.142 3.358,7.5 7.5,7.5zm7.5-181.761h224.27v166.761h-224.27v-166.761z"/>
    <path d="m315.658,171.411h-196.316c-4.142,0-7.5,3.358-7.5,7.5v138.808c0,4.142 3.358,7.5 7.5,7.5h196.317c4.143,0 7.5-3.358 7.5-7.5v-138.808c-0.001-4.142-3.358-7.5-7.501-7.5zm-7.5,15v19.702h-181.316v-19.702h181.316zm-181.316,54.404v-19.702h181.317v19.702h-181.317zm181.316,15v19.702h-181.316v-19.702h181.316zm-181.316,54.404v-19.702h181.317v19.702h-181.317z"/>
    <path d="m182.865,140.767h69.27c4.143,0 7.5-3.358 7.5-7.5s-3.357-7.5-7.5-7.5h-69.27c-4.142,0-7.5,3.358-7.5,7.5s3.358,7.5 7.5,7.5z"/>
    <path d="m94.755,92.783c13.785,0 25-11.215 25-25s-11.215-25-25-25-25,11.215-25,25 11.214,25 25,25zm0-35c5.514,0 10,4.486 10,10s-4.486,10-10,10-10-4.486-10-10 4.485-10 10-10z"/>
    <path d="m176.585,92.783c13.785,0 25-11.215 25-25s-11.215-25-25-25-25,11.215-25,25 11.215,25 25,25zm0-35c5.514,0 10,4.486 10,10s-4.486,10-10,10-10-4.486-10-10 4.486-10 10-10z"/>
    <path d="m258.415,92.783c13.785,0 25-11.215 25-25s-11.215-25-25-25-25,11.215-25,25 11.215,25 25,25zm0-35c5.514,0 10,4.486 10,10s-4.486,10-10,10-10-4.486-10-10 4.487-10 10-10z"/>
    <path d="m340.245,92.783c13.785,0 25-11.215 25-25s-11.215-25-25-25-25,11.215-25,25 11.215,25 25,25zm0-35c5.514,0 10,4.486 10,10s-4.486,10-10,10-10-4.486-10-10 4.487-10 10-10z"/>
  </g>
</svg>
